<?xml version="1.0" encoding="utf-8"?>
<!-- Generator: Adobe Illustrator 18.0.0, SVG Export Plug-In . SVG Version: 6.00 Build 0)  -->
<!DOCTYPE svg PUBLIC "-//W3C//DTD SVG 1.1//EN" "http://www.w3.org/Graphics/SVG/1.1/DTD/svg11.dtd">
<svg version="1.1" id="Layer_1" xmlns="http://www.w3.org/2000/svg" xmlns:xlink="http://www.w3.org/1999/xlink" x="0px" y="0px"
	 viewBox="0 0 181.5 99.3" enable-background="new 0 0 181.5 99.3" xml:space="preserve">
<g>
	<path fill="#FFFFFF" d="M48.8,39.8c0,6.4-1.6,12.3-4.7,17.8c-3.1,5.5-7.3,9.9-12.6,13.3l11,18l-6.6,4L24.6,74.2
		c-4.2,1.5-8.3,2.3-12.5,2.3c-0.6,0-1.1,0-1.4-0.1v15H2.9V2.9h9.1c10.1,0,18.8,3.6,26,10.8C45.2,21,48.8,29.6,48.8,39.8z M41.1,39.8
		c0-8-2.9-14.9-8.6-20.6c-5.7-5.7-12.5-8.6-20.5-8.6h-1.4v58.1h1.4c7.9,0,14.8-2.8,20.5-8.5C38.3,54.5,41.1,47.7,41.1,39.8z
		 M24.6,21.4l-3.7,38.5c-0.3,0.1-0.9,0.3-1.6,0.6c-0.7,0.2-1.2,0.4-1.6,0.6l0.1-42.5C19.3,18.9,21.6,19.9,24.6,21.4z M21.7,83
		c-0.1,0-0.3,0-0.4,0c-0.2,0.1-0.3,0.1-0.4,0.1v8.3h-3.2v-8.3l3.7-0.6L21.7,83z M59,39.8c0,6.4-1.3,12.5-4,18.2
		c-2.7,5.7-6.4,10.6-11.1,14.6l10.8,17.2l-10.5,6.4h-3.1l10.4-6.4L40.7,72.6c4.7-4,8.4-8.9,11.1-14.6c2.7-5.7,4.1-11.8,4.1-18.2
		c0-7.6-1.8-14.7-5.5-21.3C46.7,12,41.8,6.8,35.7,2.9h3.2c6.2,3.9,11,9.1,14.6,15.5C57.1,25.1,59,32.2,59,39.8z"/>
	<path fill="#FFFFFF" d="M110.7,47.1c0,11.1-3.7,20.9-11,29.5c-7.5,8.8-16.8,13.6-27.8,14.5l-4.1,0.3V2.6l4.1,0.3
		c11,0.8,20.3,5.6,27.8,14.5C107,26,110.7,35.9,110.7,47.1z M102.9,47.1c0-8.3-2.6-15.9-7.7-22.8c-5.1-6.9-11.7-11.3-19.7-13v71.4
		c8-1.8,14.6-6.1,19.7-12.9C100.3,63,102.9,55.4,102.9,47.1z M87.5,25.2L85.6,70c-0.3,0.3-0.9,0.7-1.5,1.2c-0.7,0.5-1.2,0.9-1.5,1.2
		V21.7C83.8,22.5,85.5,23.7,87.5,25.2z M120.7,47.1c0,9-2.2,17.5-6.7,25.5c-4.5,8-10.5,14.2-18.1,18.8h-3.1
		c7.6-4.6,13.6-10.9,18.1-18.8c4.5-8,6.7-16.5,6.7-25.5c0-9-2.2-17.4-6.6-25.3c-4.4-7.9-10.3-14.2-17.8-18.9h3.2
		c7.4,4.7,13.3,10.9,17.7,18.9C118.5,29.7,120.7,38.2,120.7,47.1z"/>
	<path fill="#FFFFFF" d="M168.2,60.4c0,8.9-3.1,16.5-9.4,22.8c-6.3,6.3-13.9,9.5-22.8,9.5c-6.6,0-12.5-1.7-17.9-5.2l4.4-6.5
		c4,2.7,8.5,4,13.4,4c6.7,0,12.5-2.4,17.3-7.2c4.8-4.8,7.2-10.6,7.2-17.4s-2.4-12.6-7.2-17.3c-4.8-4.8-10.6-7.2-17.3-7.2h-8.1
		L148,10.9h-24.5V3h40.6l-20.8,26c7.3,1.7,13.3,5.5,18,11.4C165.9,46.3,168.2,52.9,168.2,60.4z M178.4,60.4c0,6.2-1.4,12.1-4.1,17.5
		c-2.7,5.4-6.5,10-11.3,13.7h-3.1c4.8-3.7,8.5-8.3,11.3-13.7c2.7-5.4,4.1-11.3,4.1-17.5c0-7.2-1.8-13.9-5.5-20.1
		c-3.7-6.2-8.7-11-15-14.4L173.1,3h3.2l-18.5,22.9c6.3,3.4,11.3,8.2,15,14.4C176.5,46.5,178.4,53.2,178.4,60.4z"/>
</g>
</svg>
